<?xml version="1.0" encoding="utf-8"?>
<!-- Generator: Adobe Illustrator 16.0.0, SVG Export Plug-In . SVG Version: 6.00 Build 0)  -->
<!DOCTYPE svg PUBLIC "-//W3C//DTD SVG 1.1//EN" "http://www.w3.org/Graphics/SVG/1.1/DTD/svg11.dtd">
<svg version="1.1" id="Layer_1" xmlns="http://www.w3.org/2000/svg" xmlns:xlink="http://www.w3.org/1999/xlink" x="0px" y="0px"
	 width="66px" height="66px" viewBox="0 0 66 66" enable-background="new 0 0 66 66" xml:space="preserve">
<g>
	<g>
		<polygon fill="#91A9BC" points="13,54.209 5,54.209 5,27.827 13,28.209 		"/>
		<polygon fill="#7A94A5" points="13,54.209 5,54.209 9.779,50.556 13,27.78 		"/>
	</g>
	<g>
		<polygon fill="#91A9BC" points="61,54.209 53,54.209 53,28.209 61,27.78 		"/>
		<polygon fill="#7A94A5" points="61,54.209 52.998,54.209 57.78,50.556 61,27.78 		"/>
	</g>
	<g>
		<g>
			<g>
				<polygon fill="#91A9BC" points="61,27.78 52.562,7.792 52.435,7.478 52.435,7.478 52.435,7.478 52.435,7.478 40.746,3.209 
					25.289,3.209 13.604,7.478 13.604,7.478 13.604,7.478 13.604,7.478 13.604,7.478 5,27.827 10.123,33.968 17.428,23.292 
					15.318,64.209 50.721,64.209 48.611,23.294 54.859,32.812 				"/>
				<polyline fill="#7A94A5" points="15.586,9.901 5,27.827 9.909,33.971 17,23.502 17,64.209 49,64.209 49,23.502 55.054,33.971 
					61,27.78 50.501,9.901 				"/>
				<line fill="#7A94A5" x1="13.599" y1="7.669" x2="13.585" y2="7.682"/>
				<path fill="#5F7784" d="M38.639,2.209H27.399l-3.025,1.544c0.144,0.26,9.272,10.116,8.646,10.116s8.502-9.898,8.645-10.159
					L38.639,2.209z"/>
				<rect x="32.83" y="13.902" fill="#5F7784" width="0.379" height="49.726"/>
				<g>
					<path fill="#4C6975" d="M33.02,4.669c-2.582,0-4.913,0.681-6.588,1.774c2.439,2.966,6.221,7.585,6.588,8.428
						c0.363-0.843,4.146-5.462,6.586-8.428C37.93,5.35,35.6,4.669,33.02,4.669z"/>
				</g>
			</g>
			<g>
				<g>
					<polygon fill="#678393" points="27.821,9.857 32.92,15.044 31.401,8.233 					"/>
					<polygon fill="#BCCED8" points="27.166,11.415 23.186,4.269 26.691,1.791 31.401,8.233 					"/>
					<polygon fill="#AEC4CE" points="27.166,11.415 26.678,4.269 26.691,1.791 31.401,8.233 					"/>
				</g>
				<g>
					<polygon fill="#678393" points="38.215,9.857 33.117,15.044 34.634,8.233 					"/>
					<polygon fill="#AEC4CE" points="38.87,11.415 42.852,4.269 39.35,1.791 34.634,8.233 					"/>
					<polygon fill="#BCCED8" points="38.87,11.415 39.359,4.269 39.35,1.791 34.634,8.233 					"/>
				</g>
			</g>
			<g>
				<g>
					<circle fill="#FFFFFF" cx="30.959" cy="17.58" r="0.659"/>
					<path fill="#C7E9EA" d="M30.494,17.115c0.256-0.259,0.672-0.261,0.931,0c0.258,0.257,0.258,0.674,0,0.931"/>
				</g>
				<g>
					<circle fill="#FFFFFF" cx="30.959" cy="22.108" r="0.659"/>
					<path fill="#C7E9EA" d="M30.494,21.643c0.256-0.258,0.672-0.26,0.931,0c0.258,0.258,0.258,0.674,0,0.932"/>
				</g>
				<g>
					<circle fill="#FFFFFF" cx="30.959" cy="26.638" r="0.659"/>
					<path fill="#C7E9EA" d="M30.494,26.172c0.256-0.259,0.672-0.261,0.931,0c0.258,0.257,0.258,0.674,0,0.932"/>
				</g>
				<g>
					<circle fill="#FFFFFF" cx="30.959" cy="31.166" r="0.659"/>
					<path fill="#C7E9EA" d="M30.494,30.701c0.256-0.258,0.672-0.26,0.931,0c0.258,0.257,0.258,0.673,0,0.93"/>
				</g>
				<g>
					<circle fill="#FFFFFF" cx="30.959" cy="35.695" r="0.659"/>
					<path fill="#C7E9EA" d="M30.494,35.229c0.256-0.257,0.672-0.259,0.931,0c0.258,0.257,0.258,0.674,0,0.932"/>
				</g>
				<g>
					<circle fill="#FFFFFF" cx="30.959" cy="40.224" r="0.659"/>
					<path fill="#C7E9EA" d="M30.494,39.758c0.256-0.258,0.672-0.26,0.931,0c0.258,0.258,0.258,0.675,0,0.932"/>
				</g>
				<g>
					<circle fill="#FFFFFF" cx="30.959" cy="44.753" r="0.659"/>
					<path fill="#C7E9EA" d="M30.494,44.287c0.256-0.258,0.672-0.26,0.931,0c0.258,0.258,0.258,0.674,0,0.932"/>
				</g>
				<g>
					<circle fill="#FFFFFF" cx="30.959" cy="49.282" r="0.659"/>
					<path fill="#C7E9EA" d="M30.494,48.814c0.256-0.257,0.672-0.259,0.931,0c0.258,0.258,0.258,0.676,0,0.933"/>
				</g>
				<g>
					<circle fill="#FFFFFF" cx="30.959" cy="53.811" r="0.659"/>
					<path fill="#C7E9EA" d="M30.494,53.345c0.256-0.259,0.672-0.261,0.931,0c0.258,0.258,0.258,0.674,0,0.931"/>
				</g>
				<g>
					<circle fill="#FFFFFF" cx="30.959" cy="58.339" r="0.659"/>
					<path fill="#C7E9EA" d="M30.494,57.874c0.256-0.257,0.672-0.259,0.931,0c0.258,0.257,0.258,0.673,0,0.93"/>
				</g>
			</g>
		</g>
		<g>
			<polygon fill="#5F7784" points="18.834,64.209 17.656,60.229 16.479,64.209 			"/>
			<polygon fill="#5F7784" points="49.559,64.209 48.382,60.229 47.203,64.209 			"/>
		</g>
		<path opacity="0.4" fill="#70B7B7" d="M46.479,19.209c-0.576-2-2.283-2.835-4.325-2.835s-3.75,0.835-4.324,2.835H46.479z"/>
		<path fill="#AEC4CE" d="M47,18.903c0,0.169-0.137,0.306-0.305,0.306h-9.391c-0.168,0-0.305-0.137-0.305-0.306v-0.389
			c0-0.169,0.137-0.306,0.305-0.306h9.391c0.168,0,0.305,0.137,0.305,0.306V18.903z"/>
	</g>
</g>
</svg>
